<mxfile host="app.diagrams.net" modified="2022-02-24T02:00:47.819Z" agent="5.0 (Windows NT 10.0; Win64; x64) AppleWebKit/537.36 (KHTML, like Gecko) Chrome/98.0.4758.102 Safari/537.36" etag="G6m6xirqa5om0XQXOfut" version="16.6.2" type="github">
  <diagram id="eeRomifdCc9147bWd0tV" name="Page-1">
    <mxGraphModel dx="1422" dy="762" grid="1" gridSize="10" guides="1" tooltips="1" connect="1" arrows="1" fold="1" page="1" pageScale="1" pageWidth="827" pageHeight="1169" math="0" shadow="0">
      <root>
        <mxCell id="0" />
        <mxCell id="1" parent="0" />
        <mxCell id="SFu0Sz85wc-8nNvAH62p-12" value="" style="edgeStyle=orthogonalEdgeStyle;rounded=0;orthogonalLoop=1;jettySize=auto;html=1;entryX=1;entryY=0.75;entryDx=0;entryDy=0;" edge="1" parent="1" target="SFu0Sz85wc-8nNvAH62p-5">
          <mxGeometry relative="1" as="geometry">
            <mxPoint x="584" y="345" as="sourcePoint" />
            <mxPoint x="509" y="330" as="targetPoint" />
          </mxGeometry>
        </mxCell>
        <mxCell id="SFu0Sz85wc-8nNvAH62p-28" value="3) 외부 DB로 부터 과제 받음" style="edgeLabel;html=1;align=center;verticalAlign=middle;resizable=0;points=[];" vertex="1" connectable="0" parent="SFu0Sz85wc-8nNvAH62p-12">
          <mxGeometry x="-0.1703" y="1" relative="1" as="geometry">
            <mxPoint as="offset" />
          </mxGeometry>
        </mxCell>
        <mxCell id="SFu0Sz85wc-8nNvAH62p-14" value="9) 학습자가 피드백 확인" style="edgeStyle=orthogonalEdgeStyle;rounded=0;orthogonalLoop=1;jettySize=auto;html=1;entryX=0.5;entryY=0;entryDx=0;entryDy=0;entryPerimeter=0;" edge="1" parent="1" source="SFu0Sz85wc-8nNvAH62p-1" target="SFu0Sz85wc-8nNvAH62p-2">
          <mxGeometry x="0.6098" relative="1" as="geometry">
            <mxPoint x="729" y="330" as="targetPoint" />
            <mxPoint as="offset" />
          </mxGeometry>
        </mxCell>
        <mxCell id="SFu0Sz85wc-8nNvAH62p-1" value="외부 DB" style="shape=cylinder3;whiteSpace=wrap;html=1;boundedLbl=1;backgroundOutline=1;size=15;" vertex="1" parent="1">
          <mxGeometry x="574" y="270" width="90" height="120" as="geometry" />
        </mxCell>
        <mxCell id="SFu0Sz85wc-8nNvAH62p-3" value="" style="edgeStyle=orthogonalEdgeStyle;rounded=0;orthogonalLoop=1;jettySize=auto;html=1;" edge="1" parent="1" source="SFu0Sz85wc-8nNvAH62p-2" target="SFu0Sz85wc-8nNvAH62p-1">
          <mxGeometry relative="1" as="geometry" />
        </mxCell>
        <mxCell id="SFu0Sz85wc-8nNvAH62p-26" value="1) 과제 완료" style="edgeLabel;html=1;align=center;verticalAlign=middle;resizable=0;points=[];" vertex="1" connectable="0" parent="SFu0Sz85wc-8nNvAH62p-3">
          <mxGeometry x="0.2098" relative="1" as="geometry">
            <mxPoint as="offset" />
          </mxGeometry>
        </mxCell>
        <mxCell id="SFu0Sz85wc-8nNvAH62p-2" value="학습자" style="shape=umlActor;verticalLabelPosition=bottom;verticalAlign=top;html=1;outlineConnect=0;" vertex="1" parent="1">
          <mxGeometry x="704" y="480" width="30" height="60" as="geometry" />
        </mxCell>
        <mxCell id="SFu0Sz85wc-8nNvAH62p-8" value="원할 때 데이터 볼 수 있음" style="edgeStyle=orthogonalEdgeStyle;rounded=0;orthogonalLoop=1;jettySize=auto;html=1;entryX=0.75;entryY=0;entryDx=0;entryDy=0;exitX=0.775;exitY=0.988;exitDx=0;exitDy=0;exitPerimeter=0;" edge="1" parent="1" source="SFu0Sz85wc-8nNvAH62p-4" target="SFu0Sz85wc-8nNvAH62p-5">
          <mxGeometry x="-1" y="68" relative="1" as="geometry">
            <Array as="points">
              <mxPoint x="325" y="190" />
            </Array>
            <mxPoint x="53" y="-37" as="offset" />
          </mxGeometry>
        </mxCell>
        <mxCell id="SFu0Sz85wc-8nNvAH62p-4" value="내부 DB" style="shape=cube;whiteSpace=wrap;html=1;boundedLbl=1;backgroundOutline=1;darkOpacity=0.05;darkOpacity2=0.1;" vertex="1" parent="1">
          <mxGeometry x="225" y="110" width="140" height="80" as="geometry" />
        </mxCell>
        <mxCell id="SFu0Sz85wc-8nNvAH62p-10" value="8-1) 외부 DB에 피드백 데이터 전송" style="edgeStyle=orthogonalEdgeStyle;rounded=0;orthogonalLoop=1;jettySize=auto;html=1;exitX=1;exitY=0.25;exitDx=0;exitDy=0;entryX=0.011;entryY=0.375;entryDx=0;entryDy=0;entryPerimeter=0;" edge="1" parent="1" source="SFu0Sz85wc-8nNvAH62p-5" target="SFu0Sz85wc-8nNvAH62p-1">
          <mxGeometry x="0.1728" y="15" relative="1" as="geometry">
            <mxPoint x="374" y="330" as="targetPoint" />
            <mxPoint as="offset" />
          </mxGeometry>
        </mxCell>
        <mxCell id="SFu0Sz85wc-8nNvAH62p-27" value="2) 외부 DB 접근" style="edgeLabel;html=1;align=center;verticalAlign=middle;resizable=0;points=[];" vertex="1" connectable="0" parent="SFu0Sz85wc-8nNvAH62p-10">
          <mxGeometry x="0.1819" relative="1" as="geometry">
            <mxPoint as="offset" />
          </mxGeometry>
        </mxCell>
        <mxCell id="SFu0Sz85wc-8nNvAH62p-17" value="8-2) 내부 DB에 피드백 데이터&lt;br&gt;&amp;nbsp;저장&amp;nbsp;및 교육자 데이터 관리" style="edgeStyle=orthogonalEdgeStyle;rounded=0;orthogonalLoop=1;jettySize=auto;html=1;entryX=0.279;entryY=0.988;entryDx=0;entryDy=0;entryPerimeter=0;exitX=0.25;exitY=0;exitDx=0;exitDy=0;" edge="1" parent="1" source="SFu0Sz85wc-8nNvAH62p-5" target="SFu0Sz85wc-8nNvAH62p-4">
          <mxGeometry x="0.4475" y="80" relative="1" as="geometry">
            <mxPoint as="offset" />
          </mxGeometry>
        </mxCell>
        <mxCell id="SFu0Sz85wc-8nNvAH62p-18" value="4)&amp;nbsp;과제 대기 상태&lt;br&gt;&amp;nbsp;과제 노출" style="edgeStyle=orthogonalEdgeStyle;rounded=0;orthogonalLoop=1;jettySize=auto;html=1;entryX=0.75;entryY=0;entryDx=0;entryDy=0;exitX=0.75;exitY=1;exitDx=0;exitDy=0;" edge="1" parent="1" source="SFu0Sz85wc-8nNvAH62p-5" target="SFu0Sz85wc-8nNvAH62p-15">
          <mxGeometry x="0.4545" y="-1" relative="1" as="geometry">
            <mxPoint as="offset" />
          </mxGeometry>
        </mxCell>
        <mxCell id="SFu0Sz85wc-8nNvAH62p-5" value="피드백 API" style="rounded=0;whiteSpace=wrap;html=1;" vertex="1" parent="1">
          <mxGeometry x="235" y="300" width="120" height="60" as="geometry" />
        </mxCell>
        <mxCell id="SFu0Sz85wc-8nNvAH62p-16" value="7) 피드백 데이터&lt;br&gt;가져감" style="edgeStyle=orthogonalEdgeStyle;rounded=0;orthogonalLoop=1;jettySize=auto;html=1;exitX=0.25;exitY=0;exitDx=0;exitDy=0;entryX=0.25;entryY=1;entryDx=0;entryDy=0;" edge="1" parent="1" source="SFu0Sz85wc-8nNvAH62p-15" target="SFu0Sz85wc-8nNvAH62p-5">
          <mxGeometry x="0.4545" relative="1" as="geometry">
            <mxPoint as="offset" />
          </mxGeometry>
        </mxCell>
        <mxCell id="SFu0Sz85wc-8nNvAH62p-25" value="" style="edgeStyle=orthogonalEdgeStyle;rounded=0;orthogonalLoop=1;jettySize=auto;html=1;exitX=0;exitY=0.75;exitDx=0;exitDy=0;" edge="1" parent="1" source="SFu0Sz85wc-8nNvAH62p-15">
          <mxGeometry relative="1" as="geometry">
            <mxPoint x="125" y="515" as="targetPoint" />
          </mxGeometry>
        </mxCell>
        <mxCell id="SFu0Sz85wc-8nNvAH62p-29" value="5) 교육자가 &lt;br&gt;현황 확인" style="edgeLabel;html=1;align=center;verticalAlign=middle;resizable=0;points=[];" vertex="1" connectable="0" parent="SFu0Sz85wc-8nNvAH62p-25">
          <mxGeometry x="0.3091" y="2" relative="1" as="geometry">
            <mxPoint x="21" as="offset" />
          </mxGeometry>
        </mxCell>
        <mxCell id="SFu0Sz85wc-8nNvAH62p-15" value="사하라이트" style="rounded=0;whiteSpace=wrap;html=1;" vertex="1" parent="1">
          <mxGeometry x="235" y="470" width="120" height="60" as="geometry" />
        </mxCell>
        <mxCell id="SFu0Sz85wc-8nNvAH62p-23" value="6) 피드백 제출" style="edgeStyle=orthogonalEdgeStyle;rounded=0;orthogonalLoop=1;jettySize=auto;html=1;entryX=0;entryY=0.25;entryDx=0;entryDy=0;" edge="1" parent="1" source="SFu0Sz85wc-8nNvAH62p-19" target="SFu0Sz85wc-8nNvAH62p-15">
          <mxGeometry relative="1" as="geometry">
            <Array as="points">
              <mxPoint x="155" y="485" />
              <mxPoint x="155" y="485" />
            </Array>
          </mxGeometry>
        </mxCell>
        <mxCell id="SFu0Sz85wc-8nNvAH62p-19" value="교육자" style="shape=umlActor;verticalLabelPosition=bottom;verticalAlign=top;html=1;outlineConnect=0;" vertex="1" parent="1">
          <mxGeometry x="94" y="469" width="30" height="60" as="geometry" />
        </mxCell>
      </root>
    </mxGraphModel>
  </diagram>
</mxfile>
